<svg xmlns="http://www.w3.org/2000/svg" viewBox="0 0 64 64">
  <rect width="64" height="64" rx="10" fill="#0A1320"/>
  <rect x="14" y="14" width="36" height="36" fill="none" stroke="#1FB6A6" stroke-width="2" opacity=".5"/>
  <path d="M20 44V20h11c5 0 8 2.6 8 6.4 0 2.6-1.5 4.4-3.8 5.2 2.8.6 4.6 2.7 4.6 5.6 0 4-3.2 6.8-8.6 6.8H20zm5.4-14.2h5c2.2 0 3.5-1 3.5-2.8s-1.3-2.8-3.5-2.8h-5v5.6zm0 9.8h5.4c2.4 0 3.8-1.1 3.8-3s-1.4-3-3.8-3h-5.4v6z" fill="#F4F8FB"/>
  <circle cx="46" cy="18" r="2.4" fill="#1FB6A6"/>
</svg>
